<svg id="svg" version="1.1" xmlns="http://www.w3.org/2000/svg" xmlns:xlink="http://www.w3.org/1999/xlink" width="400" height="400" viewBox="0, 0, 400,400"><g id="svgg"><path id="path0" d="M176.909 24.574 C 177.501 24.648,178.551 24.649,179.243 24.577 C 179.934 24.504,179.450 24.444,178.167 24.443 C 176.883 24.441,176.317 24.500,176.909 24.574 M195.576 24.574 C 196.168 24.648,197.218 24.649,197.909 24.577 C 198.601 24.504,198.117 24.444,196.833 24.443 C 195.550 24.441,194.984 24.500,195.576 24.574 M171.000 25.041 C 170.358 25.158,171.108 25.214,172.667 25.165 C 175.832 25.066,175.497 25.127,168.833 25.860 C 152.340 27.674,134.434 32.658,119.701 39.538 C 116.732 40.924,115.237 41.412,116.333 40.636 C 116.778 40.322,116.778 40.299,116.333 40.433 C 116.058 40.516,115.868 40.744,115.911 40.941 C 115.953 41.137,114.303 42.151,112.244 43.194 C 106.328 46.190,98.363 51.088,92.925 55.074 C 91.693 55.978,90.547 56.632,90.380 56.529 C 90.212 56.425,89.871 56.602,89.621 56.920 C 89.200 57.457,89.216 57.463,89.833 57.000 C 90.456 56.533,90.469 56.540,90.030 57.099 C 89.771 57.428,89.370 57.624,89.138 57.535 C 88.905 57.446,88.517 57.627,88.274 57.936 C 87.871 58.452,87.890 58.459,88.500 58.018 C 90.018 56.922,88.107 58.637,85.408 60.795 C 82.630 63.016,82.095 63.348,82.532 62.583 C 82.663 62.354,82.297 62.607,81.718 63.146 C 80.427 64.348,80.315 64.759,81.583 63.643 C 82.465 62.867,82.463 62.877,81.521 63.918 C 80.561 64.979,79.721 65.405,80.207 64.583 C 80.343 64.354,79.780 64.767,78.956 65.500 C 78.132 66.233,77.507 66.898,77.567 66.977 C 77.627 67.056,78.237 66.607,78.922 65.980 C 79.606 65.352,79.422 65.624,78.513 66.586 C 76.945 68.242,75.751 69.004,76.688 67.750 C 76.927 67.429,74.921 69.340,72.228 71.996 C 67.833 76.332,66.394 77.861,67.833 76.667 C 69.110 75.607,68.141 77.040,66.586 78.513 C 65.624 79.422,65.352 79.606,65.980 78.922 C 66.607 78.237,67.056 77.627,66.977 77.567 C 66.898 77.507,66.233 78.132,65.500 78.956 C 64.767 79.780,64.354 80.343,64.583 80.207 C 65.405 79.721,64.979 80.561,63.918 81.521 L 62.836 82.500 63.667 81.500 L 64.498 80.500 63.415 81.479 C 62.351 82.442,62.012 82.905,62.667 82.500 C 63.436 82.025,62.872 82.945,61.441 84.500 L 59.907 86.167 61.143 84.583 C 62.802 82.456,62.426 82.564,60.614 84.735 C 59.818 85.689,59.354 86.355,59.583 86.215 C 60.291 85.783,60.043 86.527,59.256 87.198 C 58.519 87.827,58.516 87.827,59.006 87.167 C 59.463 86.550,59.456 86.534,58.920 86.954 C 58.602 87.204,58.419 87.535,58.514 87.689 C 58.609 87.844,57.656 89.364,56.396 91.068 C 55.136 92.772,53.537 95.026,52.843 96.077 C 52.149 97.127,51.461 97.912,51.314 97.821 C 51.166 97.730,50.938 97.831,50.805 98.046 C 50.654 98.290,50.708 98.347,50.948 98.198 C 51.566 97.817,51.400 98.282,50.385 99.773 C 48.992 101.821,45.195 108.300,43.996 110.674 C 43.424 111.807,42.889 112.667,42.807 112.584 C 42.724 112.502,43.047 111.737,43.524 110.884 C 44.000 110.031,44.315 109.333,44.224 109.333 C 43.928 109.333,42.334 112.398,42.495 112.658 C 42.580 112.797,41.548 115.293,40.199 118.205 C 21.494 158.616,19.737 203.121,35.213 244.589 C 35.847 246.288,36.260 247.849,36.131 248.057 C 36.002 248.266,36.036 248.351,36.205 248.246 C 36.375 248.141,37.242 249.731,38.132 251.778 C 39.022 253.825,41.081 258.104,42.706 261.286 C 44.332 264.468,45.565 267.229,45.446 267.421 C 45.327 267.613,45.389 267.672,45.583 267.551 C 45.785 267.427,46.398 268.156,47.012 269.250 C 48.879 272.575,54.088 280.336,57.439 284.785 C 60.705 289.121,61.001 289.577,60.250 289.118 C 60.021 288.978,60.484 289.644,61.280 290.598 C 62.076 291.551,62.901 292.430,63.114 292.551 C 63.326 292.671,63.121 292.334,62.657 291.802 C 61.022 289.923,60.853 289.485,62.406 291.149 C 63.938 292.789,64.426 293.615,63.583 293.136 C 63.118 292.872,64.393 294.324,67.750 297.879 C 68.988 299.190,70.000 300.159,70.000 300.032 C 70.000 299.906,69.387 299.209,68.638 298.484 C 67.889 297.760,66.512 296.267,65.578 295.167 C 63.586 292.819,63.658 292.890,71.856 301.333 C 75.327 304.908,76.967 306.723,75.500 305.367 C 74.033 304.012,72.271 302.287,71.584 301.535 C 70.897 300.782,70.335 300.329,70.334 300.527 C 70.334 300.725,71.196 301.689,72.250 302.669 C 73.304 303.648,75.208 305.436,76.481 306.642 C 77.753 307.847,78.597 308.571,78.356 308.250 C 77.542 307.165,78.528 307.658,79.685 308.914 C 80.428 309.720,80.510 309.876,79.917 309.355 C 78.649 308.243,78.760 308.652,80.052 309.854 C 80.630 310.393,80.996 310.646,80.865 310.417 C 80.402 309.605,81.223 310.015,82.188 311.078 C 82.731 311.677,82.832 311.875,82.415 311.525 C 82.001 311.177,81.608 310.955,81.542 311.030 C 81.476 311.105,81.883 311.542,82.448 312.000 C 83.013 312.458,83.359 312.646,83.218 312.417 C 82.736 311.636,83.314 311.999,86.075 314.207 C 88.939 316.499,89.826 317.282,89.083 316.863 C 88.480 316.522,88.572 316.842,89.231 317.376 C 89.614 317.687,89.714 317.700,89.544 317.417 C 89.105 316.685,89.616 316.958,92.087 318.776 C 103.860 327.437,119.331 335.561,133.308 340.421 C 139.732 342.654,144.215 341.177,147.732 335.667 C 148.259 334.842,148.859 334.167,149.067 334.167 C 149.275 334.167,149.506 333.942,149.581 333.667 C 149.702 333.222,149.674 333.222,149.330 333.667 C 148.901 334.219,148.929 334.058,149.842 330.680 C 150.230 329.242,150.333 326.455,150.333 317.391 L 150.333 305.922 149.417 306.123 C 141.028 307.959,130.552 308.328,123.500 307.035 C 117.603 305.954,109.167 302.962,109.167 301.952 C 109.167 301.734,108.942 301.494,108.667 301.419 C 108.222 301.298,108.222 301.322,108.667 301.636 C 108.942 301.831,109.010 301.992,108.819 301.995 C 108.287 302.003,103.171 298.779,102.638 298.100 C 102.198 297.540,102.211 297.533,102.833 298.000 C 103.446 298.460,103.464 298.454,103.059 297.936 C 102.816 297.627,102.434 297.443,102.210 297.530 C 101.985 297.616,101.434 297.269,100.984 296.760 L 100.167 295.833 101.083 296.641 C 102.352 297.760,102.240 297.348,100.948 296.146 C 100.370 295.607,100.004 295.354,100.135 295.583 C 100.671 296.522,99.705 295.893,98.072 294.240 C 96.353 292.498,95.649 291.304,97.066 292.532 C 97.470 292.881,97.066 292.304,96.170 291.250 C 94.260 289.005,93.798 288.714,95.374 290.750 C 96.105 291.694,96.215 291.945,95.703 291.502 C 93.736 289.801,89.407 282.157,89.812 281.101 C 89.911 280.843,89.870 280.708,89.720 280.801 C 89.570 280.893,88.934 279.900,88.307 278.594 C 87.680 277.288,86.533 275.100,85.757 273.732 C 84.982 272.365,84.443 271.092,84.559 270.905 C 84.675 270.717,84.615 270.659,84.426 270.776 C 84.030 271.021,82.219 268.455,82.484 268.026 C 82.580 267.870,82.398 267.538,82.080 267.288 C 81.544 266.868,81.537 266.884,81.994 267.500 C 82.484 268.160,82.481 268.160,81.744 267.532 C 80.957 266.860,80.709 266.117,81.417 266.548 C 83.391 267.754,76.859 261.252,74.167 259.332 C 71.620 257.516,70.084 256.098,69.294 254.833 C 68.950 254.283,68.669 254.024,68.668 254.257 C 68.666 254.986,71.346 257.630,74.148 259.664 C 76.626 261.462,79.155 263.851,80.345 265.517 C 80.614 265.892,80.035 265.334,79.060 264.275 C 78.084 263.217,75.850 261.260,74.096 259.926 C 67.683 255.049,66.680 253.045,69.917 251.579 C 75.862 248.885,86.997 252.467,94.621 259.526 C 96.657 261.411,97.769 262.848,96.664 262.165 C 96.359 261.977,99.486 266.274,99.939 266.667 C 100.291 266.971,98.914 264.854,97.880 263.500 C 97.181 262.584,97.093 262.366,97.600 262.804 C 98.603 263.669,101.742 268.608,101.519 268.968 C 101.421 269.128,101.602 269.462,101.920 269.712 C 102.456 270.132,102.463 270.116,102.006 269.500 C 101.516 268.840,101.519 268.840,102.256 269.468 C 102.992 270.096,103.311 270.898,102.667 270.500 C 102.012 270.095,102.351 270.558,103.415 271.521 L 104.498 272.500 103.666 271.500 C 103.208 270.950,104.109 271.712,105.667 273.193 C 116.125 283.133,133.570 286.883,147.833 282.257 L 150.167 281.500 150.383 276.667 C 150.732 268.856,152.635 260.167,153.998 260.167 C 154.243 260.167,154.506 259.942,154.581 259.667 C 154.702 259.222,154.678 259.222,154.364 259.667 C 154.056 260.103,154.010 260.096,154.005 259.615 C 154.001 259.201,153.562 259.005,152.250 258.834 C 145.663 257.976,125.958 252.210,126.517 251.306 C 126.618 251.142,126.488 251.089,126.228 251.189 C 125.401 251.506,114.943 246.593,115.085 245.954 C 115.130 245.750,114.942 245.516,114.667 245.433 C 114.222 245.299,114.222 245.322,114.667 245.636 C 114.942 245.831,115.010 245.992,114.819 245.995 C 112.993 246.022,101.714 237.696,96.310 232.333 C 91.494 227.553,86.196 221.052,88.052 222.198 C 88.292 222.347,88.346 222.290,88.195 222.046 C 88.062 221.831,87.826 221.735,87.669 221.832 C 87.005 222.242,82.043 212.971,79.958 207.425 C 69.808 180.430,77.194 142.167,95.868 125.000 C 96.578 124.347,96.301 124.757,95.238 125.933 C 94.194 127.087,92.413 129.262,91.282 130.766 C 90.151 132.270,89.081 133.688,88.905 133.917 C 88.729 134.146,88.660 134.333,88.752 134.333 C 88.844 134.333,89.968 132.938,91.250 131.232 C 92.532 129.526,94.418 127.227,95.440 126.123 C 97.501 123.897,97.488 124.151,95.684 121.175 C 89.231 110.535,90.444 87.845,98.060 76.750 L 99.032 75.333 101.506 75.333 C 115.751 75.333,132.681 82.836,144.512 94.393 L 147.190 97.009 149.678 96.152 C 169.286 89.403,205.114 89.266,225.075 95.865 C 226.492 96.333,227.842 96.619,228.075 96.500 C 228.309 96.381,228.209 96.520,227.853 96.809 C 227.497 97.097,227.350 97.333,227.527 97.333 C 227.704 97.333,229.120 96.024,230.674 94.424 C 232.228 92.823,232.975 91.960,232.333 92.506 L 231.167 93.499 232.315 92.249 C 233.357 91.117,234.334 90.524,233.839 91.324 C 233.630 91.662,239.248 87.524,239.833 86.909 C 240.251 86.470,238.451 87.676,235.833 89.589 C 234.173 90.803,234.047 90.856,235.093 89.899 C 243.540 82.169,261.489 75.344,273.393 75.335 L 275.953 75.333 277.458 77.750 C 284.598 89.209,285.674 109.649,279.760 121.460 L 278.945 123.086 280.261 124.460 C 298.207 143.191,304.847 178.417,295.601 205.833 C 294.253 209.829,290.779 217.109,290.348 216.842 C 290.156 216.723,290.085 216.834,290.185 217.095 C 290.350 217.523,285.916 224.667,285.486 224.667 C 285.380 224.667,285.387 224.517,285.500 224.333 C 285.835 223.791,285.453 223.953,284.957 224.564 C 284.647 224.947,284.634 225.048,284.917 224.878 C 285.622 224.454,285.377 225.193,284.589 225.865 C 283.852 226.494,283.850 226.493,284.333 225.833 C 284.817 225.173,284.814 225.173,284.078 225.802 C 283.315 226.452,283.070 226.869,283.667 226.500 C 284.375 226.063,283.955 226.924,283.086 227.692 C 282.262 228.420,282.234 228.425,282.804 227.750 C 283.768 226.607,283.256 226.856,282.146 228.071 C 281.607 228.659,281.429 228.941,281.750 228.696 C 283.321 227.499,281.992 229.186,279.077 232.090 C 276.183 234.974,274.448 236.347,275.709 234.756 C 275.961 234.439,275.267 234.948,274.167 235.886 C 273.067 236.825,270.667 238.655,268.833 239.953 C 264.550 242.986,263.809 243.572,265.667 242.459 C 267.380 241.433,271.379 238.536,273.833 236.542 C 274.750 235.798,275.200 235.540,274.833 235.969 C 273.019 238.090,262.981 244.900,262.294 244.476 C 262.049 244.324,261.985 244.372,262.127 244.602 C 262.397 245.040,259.815 246.464,259.314 246.154 C 259.132 246.042,259.025 246.138,259.075 246.367 C 259.190 246.890,249.731 251.387,248.916 251.198 C 248.595 251.123,248.405 251.179,248.493 251.323 C 249.079 252.269,225.604 259.000,221.716 259.000 C 220.942 259.000,220.600 259.713,221.062 260.364 C 221.317 260.722,221.349 260.675,221.197 260.167 C 220.773 258.744,221.980 260.742,222.696 262.647 C 224.443 267.295,224.426 266.963,224.637 300.000 L 224.833 330.833 225.601 332.639 C 226.023 333.633,226.660 334.856,227.017 335.358 C 227.764 336.406,227.849 336.813,227.250 336.462 C 227.021 336.328,227.119 336.545,227.468 336.943 C 228.225 337.806,228.611 337.917,227.957 337.083 C 227.540 336.551,227.553 336.541,228.099 336.970 C 228.428 337.229,228.622 337.634,228.531 337.872 C 228.440 338.109,228.990 338.797,229.754 339.402 C 230.517 340.006,231.014 340.293,230.858 340.040 C 230.659 339.718,230.713 339.631,231.037 339.748 C 231.292 339.841,231.473 340.053,231.440 340.220 C 231.408 340.387,231.633 340.545,231.940 340.572 C 232.248 340.598,233.320 340.855,234.323 341.143 C 236.963 341.902,237.745 341.815,242.000 340.289 C 244.108 339.533,246.157 338.897,246.552 338.874 C 246.946 338.852,247.219 338.751,247.157 338.651 C 247.095 338.550,248.796 337.735,250.939 336.840 C 253.081 335.945,257.057 334.113,259.774 332.768 C 262.492 331.424,264.878 330.424,265.076 330.547 C 265.286 330.677,265.340 330.615,265.206 330.398 C 265.069 330.175,265.514 329.751,266.318 329.341 C 267.056 328.965,269.017 327.834,270.675 326.828 C 273.863 324.895,274.183 324.751,273.800 325.417 C 273.660 325.659,273.687 325.717,273.863 325.556 C 274.030 325.403,274.167 325.154,274.167 325.003 C 274.167 324.852,275.592 323.793,277.333 322.650 C 281.011 320.237,285.817 316.719,289.224 313.946 C 291.509 312.086,292.281 311.608,291.833 312.333 C 291.429 312.988,291.891 312.649,292.854 311.585 L 293.833 310.502 292.833 311.333 L 291.833 312.164 292.812 311.082 C 293.776 310.017,294.600 309.602,294.135 310.417 C 294.004 310.646,294.370 310.393,294.948 309.854 C 296.240 308.652,296.351 308.243,295.083 309.355 C 294.490 309.876,294.572 309.720,295.315 308.914 C 296.469 307.662,297.470 307.158,296.636 308.250 C 296.390 308.571,297.326 307.783,298.714 306.500 C 300.102 305.217,301.342 303.942,301.469 303.667 C 301.597 303.392,300.643 304.213,299.350 305.491 C 298.058 306.769,297.000 307.743,297.000 307.654 C 297.000 307.565,299.507 305.019,302.572 301.996 C 305.636 298.973,307.035 297.700,305.680 299.167 C 304.326 300.633,302.922 302.100,302.562 302.425 C 302.201 302.750,301.972 303.083,302.052 303.163 C 302.221 303.332,308.186 297.044,311.363 293.349 C 312.539 291.982,313.313 290.979,313.083 291.118 C 312.376 291.550,312.624 290.807,313.411 290.135 C 314.148 289.506,314.150 289.507,313.667 290.167 C 313.183 290.827,313.186 290.827,313.922 290.198 C 314.685 289.548,314.930 289.131,314.333 289.500 C 313.595 289.956,314.096 289.083,315.385 287.667 C 316.710 286.212,316.561 286.681,315.182 288.304 C 314.807 288.746,314.677 289.006,314.892 288.882 C 315.108 288.759,315.783 288.028,316.392 287.258 C 317.002 286.488,317.313 285.974,317.083 286.116 C 316.337 286.576,316.635 286.047,318.697 283.252 C 320.675 280.570,321.731 279.307,321.164 280.302 C 320.984 280.618,321.024 280.691,321.287 280.528 C 321.502 280.396,321.597 280.157,321.498 279.997 C 321.293 279.665,325.251 273.500,325.670 273.500 C 325.821 273.500,326.069 273.363,326.222 273.197 C 326.386 273.017,326.312 273.002,326.040 273.160 C 325.724 273.343,325.633 273.282,325.748 272.963 C 325.841 272.708,326.097 272.541,326.316 272.592 C 326.536 272.642,326.634 272.550,326.533 272.387 C 326.432 272.224,327.420 270.233,328.727 267.962 C 354.967 222.394,357.281 166.948,334.963 118.543 C 333.706 115.817,332.773 113.431,332.890 113.242 C 333.011 113.046,332.941 112.997,332.729 113.128 C 332.495 113.273,331.898 112.450,331.134 110.930 C 329.404 107.489,325.390 100.870,322.117 96.060 C 320.580 93.801,319.398 91.831,319.491 91.681 C 319.584 91.531,319.398 91.204,319.080 90.954 C 318.543 90.534,318.537 90.549,319.000 91.167 C 319.467 91.789,319.460 91.802,318.901 91.363 C 318.572 91.105,318.376 90.703,318.465 90.471 C 318.554 90.239,318.373 89.850,318.064 89.608 C 317.546 89.202,317.540 89.221,318.000 89.833 C 318.467 90.456,318.460 90.469,317.901 90.030 C 317.572 89.771,317.376 89.370,317.465 89.138 C 317.554 88.905,317.373 88.517,317.064 88.274 C 316.548 87.871,316.541 87.890,316.982 88.500 C 318.078 90.018,316.363 88.107,314.205 85.408 C 311.984 82.630,311.652 82.095,312.417 82.532 C 312.646 82.663,312.393 82.297,311.854 81.718 C 310.652 80.427,310.243 80.316,311.355 81.583 C 311.876 82.177,311.720 82.095,310.914 81.351 C 309.659 80.196,309.163 79.204,310.250 80.026 C 310.571 80.268,310.165 79.762,309.347 78.900 C 308.530 78.038,307.788 77.333,307.699 77.333 C 307.609 77.333,308.052 77.896,308.683 78.583 C 309.585 79.566,309.492 79.516,308.248 78.347 C 306.726 76.917,306.048 75.789,307.250 76.688 C 307.571 76.927,305.660 74.921,303.004 72.228 C 298.668 67.833,297.139 66.394,298.333 67.833 C 299.340 69.046,297.995 68.181,296.653 66.752 C 295.168 65.171,295.168 65.170,296.500 66.333 C 297.832 67.496,297.832 67.496,296.347 65.915 C 294.948 64.426,294.090 63.737,295.000 64.833 C 295.896 65.913,294.859 65.235,292.569 63.244 C 291.248 62.095,289.229 60.437,288.083 59.558 C 286.938 58.680,286.000 57.876,286.000 57.773 C 286.000 57.670,286.262 57.791,286.583 58.043 C 287.108 58.454,287.122 58.443,286.726 57.936 C 286.483 57.627,286.095 57.446,285.862 57.535 C 285.630 57.624,285.229 57.428,284.970 57.099 C 284.531 56.540,284.544 56.533,285.167 57.000 C 285.784 57.463,285.800 57.457,285.379 56.920 C 285.129 56.602,284.793 56.422,284.632 56.521 C 284.472 56.621,282.876 55.657,281.087 54.381 C 277.485 51.811,271.711 48.131,268.249 46.198 C 266.941 45.468,266.089 44.792,266.217 44.586 C 266.342 44.384,266.280 44.327,266.073 44.455 C 265.873 44.578,263.304 43.476,260.364 42.005 C 241.953 32.795,217.559 25.980,200.500 25.279 C 199.338 25.232,199.402 25.200,201.000 25.029 C 202.008 24.921,195.933 24.832,187.500 24.831 C 179.067 24.830,171.642 24.924,171.000 25.041 M203.417 25.230 C 203.737 25.314,204.262 25.314,204.583 25.230 C 204.904 25.146,204.642 25.077,204.000 25.077 C 203.358 25.077,203.096 25.146,203.417 25.230 M165.000 25.667 C 164.115 25.853,164.034 25.918,164.667 25.937 C 165.125 25.950,166.100 25.837,166.833 25.686 C 167.945 25.456,168.000 25.411,167.167 25.416 C 166.617 25.419,165.642 25.532,165.000 25.667 M208.167 25.686 C 208.900 25.837,209.875 25.953,210.333 25.942 C 210.868 25.930,210.689 25.824,209.833 25.648 C 209.100 25.496,208.125 25.380,207.667 25.391 C 207.132 25.403,207.311 25.509,208.167 25.686 M215.833 26.853 C 216.933 27.101,218.058 27.293,218.333 27.279 C 219.115 27.240,215.602 26.397,214.667 26.399 C 214.208 26.401,214.733 26.605,215.833 26.853 M157.000 27.000 C 156.340 27.211,156.305 27.267,156.833 27.267 C 157.200 27.267,157.875 27.147,158.333 27.000 C 158.993 26.789,159.028 26.733,158.500 26.733 C 158.133 26.733,157.458 26.853,157.000 27.000 M152.167 28.000 C 151.317 28.365,152.194 28.365,153.333 28.000 C 154.003 27.785,154.036 27.731,153.500 27.723 C 153.133 27.718,152.533 27.842,152.167 28.000 M221.667 28.000 C 222.806 28.365,223.683 28.365,222.833 28.000 C 222.467 27.842,221.867 27.718,221.500 27.723 C 220.964 27.731,220.997 27.785,221.667 28.000 M148.500 28.846 C 147.185 29.301,147.183 29.304,148.333 29.110 C 149.693 28.881,151.083 28.373,150.333 28.380 C 150.058 28.383,149.233 28.592,148.500 28.846 M224.833 28.667 C 225.200 28.824,225.725 28.953,226.000 28.953 C 226.315 28.953,226.254 28.847,225.833 28.667 C 225.467 28.509,224.942 28.380,224.667 28.380 C 224.352 28.380,224.413 28.486,224.833 28.667 M144.667 29.833 C 144.025 30.080,143.725 30.283,144.000 30.283 C 144.275 30.283,145.025 30.080,145.667 29.833 C 146.308 29.586,146.608 29.384,146.333 29.384 C 146.058 29.384,145.308 29.586,144.667 29.833 M229.333 29.833 C 229.975 30.080,230.725 30.283,231.000 30.283 C 231.275 30.283,230.975 30.080,230.333 29.833 C 229.692 29.586,228.942 29.384,228.667 29.384 C 228.392 29.384,228.692 29.586,229.333 29.833 M141.167 30.821 C 139.879 31.411,140.478 31.419,142.000 30.833 C 142.642 30.586,142.942 30.379,142.667 30.374 C 142.392 30.368,141.717 30.569,141.167 30.821 M233.000 30.833 C 234.522 31.419,235.121 31.411,233.833 30.821 C 233.283 30.569,232.608 30.368,232.333 30.374 C 232.058 30.379,232.358 30.586,233.000 30.833 M239.333 32.833 C 239.792 33.095,240.392 33.309,240.667 33.308 C 240.942 33.308,240.662 33.088,240.045 32.820 C 238.626 32.204,238.245 32.211,239.333 32.833 M132.000 33.833 C 130.911 34.456,131.292 34.463,132.712 33.846 C 133.329 33.579,133.608 33.359,133.333 33.358 C 133.058 33.358,132.458 33.571,132.000 33.833 M242.288 33.846 C 242.905 34.114,243.505 34.328,243.622 34.322 C 244.055 34.297,242.147 33.357,241.667 33.358 C 241.392 33.359,241.671 33.579,242.288 33.846 M129.333 34.833 C 128.875 35.095,128.650 35.310,128.833 35.310 C 129.017 35.310,129.542 35.095,130.000 34.833 C 130.458 34.571,130.683 34.357,130.500 34.357 C 130.317 34.357,129.792 34.571,129.333 34.833 M245.000 34.833 C 245.458 35.095,245.983 35.310,246.167 35.310 C 246.350 35.310,246.125 35.095,245.667 34.833 C 245.208 34.571,244.683 34.357,244.500 34.357 C 244.317 34.357,244.542 34.571,245.000 34.833 M124.333 36.833 C 123.875 37.095,123.650 37.310,123.833 37.310 C 124.017 37.310,124.542 37.095,125.000 36.833 C 125.458 36.571,125.683 36.357,125.500 36.357 C 125.317 36.357,124.792 36.571,124.333 36.833 M250.000 36.833 C 250.458 37.095,250.983 37.310,251.167 37.310 C 251.350 37.310,251.125 37.095,250.667 36.833 C 250.208 36.571,249.683 36.357,249.500 36.357 C 249.317 36.357,249.542 36.571,250.000 36.833 M122.000 37.833 C 121.542 38.095,121.317 38.310,121.500 38.310 C 121.683 38.310,122.208 38.095,122.667 37.833 C 123.125 37.571,123.350 37.357,123.167 37.357 C 122.983 37.357,122.458 37.571,122.000 37.833 M252.333 37.833 C 252.792 38.095,253.317 38.310,253.500 38.310 C 253.683 38.310,253.458 38.095,253.000 37.833 C 252.542 37.571,252.017 37.357,251.833 37.357 C 251.650 37.357,251.875 37.571,252.333 37.833 M110.583 43.356 C 109.896 43.719,109.333 44.090,109.333 44.181 C 109.333 44.272,109.933 44.041,110.667 43.667 C 111.400 43.293,112.000 42.914,112.000 42.827 C 112.000 42.609,111.998 42.609,110.583 43.356 M107.581 44.971 C 106.248 45.826,106.002 46.172,107.167 45.555 C 108.563 44.814,109.226 44.340,108.833 44.363 C 108.650 44.373,108.086 44.647,107.581 44.971 M268.000 45.684 C 268.869 46.275,270.333 47.023,270.333 46.875 C 270.333 46.690,268.033 45.332,267.731 45.338 C 267.604 45.341,267.725 45.497,268.000 45.684 M103.583 47.354 C 102.346 48.096,101.333 48.788,101.333 48.890 C 101.333 48.993,101.671 48.859,102.083 48.593 C 102.496 48.328,103.546 47.696,104.417 47.190 C 105.758 46.411,106.284 45.994,105.917 46.002 C 105.871 46.003,104.821 46.611,103.583 47.354 M272.333 48.111 C 272.333 48.202,273.121 48.754,274.083 49.338 C 275.046 49.922,275.608 50.183,275.333 49.918 C 274.711 49.319,272.333 47.886,272.333 48.111 M97.577 51.179 C 96.893 51.644,96.333 52.096,96.333 52.183 C 96.333 52.271,96.933 51.946,97.667 51.460 C 98.831 50.690,99.225 50.333,98.911 50.333 C 98.862 50.333,98.262 50.714,97.577 51.179 M276.000 50.437 C 276.000 50.515,276.637 50.999,277.417 51.512 C 278.196 52.026,278.657 52.234,278.442 51.973 C 278.029 51.473,276.000 50.196,276.000 50.437 M93.888 53.685 C 92.849 54.428,92.000 55.116,92.000 55.213 C 92.000 55.369,94.985 53.332,95.817 52.609 C 96.668 51.868,95.568 52.482,93.888 53.685 M279.167 52.561 C 279.350 52.739,280.325 53.451,281.333 54.144 C 282.812 55.160,282.941 55.207,282.000 54.392 C 280.917 53.452,278.423 51.842,279.167 52.561 M85.250 60.193 C 84.012 61.206,83.000 62.109,83.000 62.198 C 83.000 62.288,84.050 61.514,85.333 60.477 C 87.361 58.838,87.922 58.306,87.583 58.342 C 87.537 58.347,86.487 59.180,85.250 60.193 M287.667 58.742 C 287.942 59.026,289.592 60.409,291.333 61.815 C 293.075 63.221,293.750 63.682,292.833 62.840 C 291.122 61.268,286.769 57.815,287.667 58.742 M72.500 72.333 C 70.306 74.533,68.435 76.333,68.344 76.333 C 68.252 76.333,69.972 74.533,72.167 72.333 C 74.361 70.133,76.231 68.333,76.323 68.333 C 76.415 68.333,74.694 70.133,72.500 72.333 M302.833 72.333 C 305.028 74.533,306.748 76.333,306.656 76.333 C 306.565 76.333,304.694 74.533,302.500 72.333 C 300.306 70.133,298.585 68.333,298.677 68.333 C 298.769 68.333,300.639 70.133,302.833 72.333 M103.333 75.979 C 104.708 76.130,106.583 76.343,107.500 76.451 C 108.952 76.623,109.016 76.608,108.000 76.332 C 107.358 76.157,105.483 75.945,103.833 75.860 L 100.833 75.704 103.333 75.979 M268.174 76.038 C 265.582 76.416,264.965 76.719,267.333 76.451 C 268.342 76.337,270.292 76.135,271.667 76.002 L 274.167 75.760 272.167 75.754 C 271.067 75.751,269.270 75.879,268.174 76.038 M276.189 76.833 C 277.333 78.333,277.557 78.336,276.586 76.837 C 276.172 76.198,275.713 75.673,275.566 75.671 C 275.420 75.669,275.700 76.192,276.189 76.833 M97.924 77.417 C 97.194 78.541,96.540 79.880,96.906 79.500 C 97.373 79.014,98.748 76.667,98.566 76.667 C 98.480 76.667,98.191 77.004,97.924 77.417 M262.667 77.000 C 261.997 77.215,261.964 77.269,262.500 77.277 C 262.867 77.282,263.467 77.158,263.833 77.000 C 264.683 76.635,263.806 76.635,262.667 77.000 M112.333 77.333 C 113.473 77.698,114.349 77.698,113.500 77.333 C 113.133 77.176,112.533 77.051,112.167 77.057 C 111.631 77.065,111.663 77.119,112.333 77.333 M115.667 78.167 C 116.308 78.414,117.058 78.616,117.333 78.616 C 117.608 78.616,117.308 78.414,116.667 78.167 C 116.025 77.920,115.275 77.717,115.000 77.717 C 114.725 77.717,115.025 77.920,115.667 78.167 M258.167 78.155 C 256.879 78.744,257.478 78.753,259.000 78.167 C 259.642 77.920,259.942 77.713,259.667 77.707 C 259.392 77.701,258.717 77.903,258.167 78.155 M118.955 79.180 C 119.572 79.448,120.172 79.661,120.288 79.655 C 120.722 79.631,118.814 78.690,118.333 78.692 C 118.058 78.692,118.338 78.912,118.955 79.180 M121.667 80.167 C 122.125 80.429,122.650 80.643,122.833 80.643 C 123.017 80.643,122.792 80.429,122.333 80.167 C 121.875 79.905,121.350 79.690,121.167 79.690 C 120.983 79.690,121.208 79.905,121.667 80.167 M252.333 80.167 C 251.875 80.429,251.650 80.643,251.833 80.643 C 252.017 80.643,252.542 80.429,253.000 80.167 C 253.458 79.905,253.683 79.690,253.500 79.690 C 253.317 79.690,252.792 79.905,252.333 80.167 M95.054 82.848 C 94.496 84.073,94.602 84.335,95.206 83.221 C 95.488 82.700,95.656 82.212,95.580 82.136 C 95.504 82.060,95.267 82.380,95.054 82.848 M279.357 82.500 C 279.357 82.683,279.571 83.208,279.833 83.667 C 280.095 84.125,280.310 84.350,280.310 84.167 C 280.310 83.983,280.095 83.458,279.833 83.000 C 279.571 82.542,279.357 82.317,279.357 82.500 M314.468 85.250 C 315.535 86.579,316.476 87.667,316.560 87.667 C 316.781 87.667,313.659 83.739,313.048 83.250 C 312.762 83.021,313.401 83.921,314.468 85.250 M243.917 84.191 C 242.671 84.867,242.746 85.148,244.000 84.500 C 244.550 84.216,245.000 83.912,245.000 83.825 C 245.000 83.610,244.964 83.622,243.917 84.191 M94.037 85.704 C 93.832 86.293,93.722 86.833,93.793 86.904 C 93.865 86.976,94.091 86.552,94.296 85.963 C 94.502 85.374,94.611 84.834,94.540 84.762 C 94.469 84.691,94.242 85.115,94.037 85.704 M131.500 84.909 C 131.683 85.084,132.433 85.564,133.167 85.975 C 133.900 86.387,134.200 86.475,133.833 86.170 C 133.089 85.551,130.977 84.409,131.500 84.909 M241.417 85.705 C 240.280 86.433,239.913 86.921,240.917 86.369 C 241.681 85.949,242.880 85.023,242.667 85.016 C 242.575 85.013,242.012 85.323,241.417 85.705 M280.524 85.667 C 280.647 86.125,280.886 86.725,281.056 87.000 C 281.271 87.347,281.297 87.246,281.142 86.667 C 281.020 86.208,280.780 85.608,280.610 85.333 C 280.396 84.986,280.369 85.088,280.524 85.667 M134.667 86.752 C 134.667 86.844,136.079 87.980,137.805 89.278 C 139.531 90.575,142.363 92.993,144.097 94.652 C 145.832 96.310,147.335 97.667,147.438 97.667 C 147.890 97.667,140.903 91.290,138.333 89.357 C 136.775 88.184,135.313 87.081,135.083 86.905 C 134.854 86.729,134.667 86.660,134.667 86.752 M56.966 89.417 C 55.286 91.601,55.241 91.667,55.419 91.667 C 55.511 91.667,56.209 90.842,56.971 89.833 C 57.732 88.825,58.288 88.000,58.205 88.000 C 58.123 88.000,57.566 88.638,56.966 89.417 M93.190 88.857 C 93.068 89.346,93.032 89.810,93.110 89.888 C 93.189 89.967,93.354 89.631,93.476 89.143 C 93.599 88.654,93.635 88.190,93.556 88.112 C 93.478 88.033,93.313 88.369,93.190 88.857 M281.542 89.333 C 281.658 89.975,281.884 90.800,282.045 91.167 C 282.245 91.624,282.270 91.468,282.125 90.667 C 282.009 90.025,281.782 89.200,281.622 88.833 C 281.422 88.376,281.396 88.532,281.542 89.333 M183.583 91.582 C 185.829 91.640,189.504 91.640,191.750 91.582 C 193.996 91.525,192.158 91.477,187.667 91.477 C 183.175 91.477,181.338 91.525,183.583 91.582 M173.917 91.902 C 174.329 91.981,175.004 91.981,175.417 91.902 C 175.829 91.822,175.492 91.757,174.667 91.757 C 173.842 91.757,173.504 91.822,173.917 91.902 M199.755 91.906 C 200.261 91.982,201.011 91.980,201.421 91.901 C 201.831 91.822,201.417 91.760,200.500 91.762 C 199.583 91.765,199.248 91.829,199.755 91.906 M169.333 92.351 C 168.582 92.520,168.998 92.549,170.500 92.433 C 171.783 92.333,172.896 92.195,172.972 92.126 C 173.210 91.910,170.559 92.074,169.333 92.351 M203.833 92.349 C 206.123 92.705,208.026 92.677,206.000 92.316 C 205.175 92.170,203.975 92.058,203.333 92.069 C 202.379 92.085,202.470 92.136,203.833 92.349 M92.160 94.782 C 92.032 95.974,91.994 97.149,92.075 97.391 C 92.156 97.634,92.325 96.724,92.451 95.368 C 92.577 94.012,92.615 92.838,92.536 92.758 C 92.457 92.679,92.288 93.590,92.160 94.782 M163.333 93.167 C 162.325 93.401,161.800 93.602,162.167 93.615 C 162.533 93.627,163.733 93.434,164.833 93.186 C 165.933 92.938,166.458 92.736,166.000 92.738 C 165.542 92.740,164.342 92.933,163.333 93.167 M209.500 93.000 C 210.050 93.140,210.875 93.254,211.333 93.254 C 212.077 93.254,212.059 93.227,211.167 93.000 C 210.617 92.860,209.792 92.746,209.333 92.746 C 208.590 92.746,208.608 92.773,209.500 93.000 M282.568 95.333 C 282.670 96.708,282.809 97.896,282.877 97.972 C 283.109 98.234,282.962 95.501,282.672 94.167 C 282.457 93.178,282.430 93.480,282.568 95.333 M52.667 95.333 C 51.920 96.433,51.383 97.333,51.475 97.333 C 51.567 97.333,52.253 96.433,53.000 95.333 C 53.747 94.233,54.283 93.333,54.192 93.333 C 54.100 93.333,53.414 94.233,52.667 95.333 M230.007 94.826 C 229.201 95.648,228.467 96.245,228.376 96.154 C 228.157 95.935,230.704 93.333,231.137 93.333 C 231.321 93.333,230.813 94.005,230.007 94.826 M322.369 95.917 C 323.997 98.359,325.121 99.817,324.490 98.667 C 323.882 97.559,320.969 93.333,320.813 93.333 C 320.721 93.333,321.421 94.496,322.369 95.917 M158.333 94.167 C 157.508 94.406,157.133 94.604,157.500 94.608 C 157.867 94.612,158.767 94.418,159.500 94.176 C 161.226 93.607,160.291 93.600,158.333 94.167 M215.333 94.000 C 215.792 94.147,216.467 94.267,216.833 94.267 C 217.361 94.267,217.327 94.211,216.667 94.000 C 216.208 93.853,215.533 93.733,215.167 93.733 C 214.639 93.733,214.673 93.789,215.333 94.000 M154.167 95.179 C 152.852 95.634,152.850 95.638,154.000 95.444 C 155.360 95.214,156.750 94.707,156.000 94.713 C 155.725 94.716,154.900 94.925,154.167 95.179 M221.167 95.333 C 221.533 95.491,222.058 95.620,222.333 95.620 C 222.648 95.620,222.587 95.514,222.167 95.333 C 221.800 95.176,221.275 95.047,221.000 95.047 C 220.685 95.047,220.746 95.153,221.167 95.333 M150.833 96.178 C 150.000 96.580,149.972 96.626,150.667 96.456 C 151.611 96.226,152.673 95.684,152.167 95.692 C 151.983 95.695,151.383 95.913,150.833 96.178 M91.785 100.833 C 91.784 102.483,91.840 103.200,91.910 102.427 C 91.980 101.653,91.981 100.303,91.912 99.427 C 91.843 98.550,91.786 99.183,91.785 100.833 M283.123 101.667 C 283.123 103.592,283.178 104.379,283.246 103.417 C 283.313 102.454,283.313 100.879,283.246 99.917 C 283.178 98.954,283.123 99.742,283.123 101.667 M48.580 101.583 C 46.213 105.434,46.270 105.333,46.455 105.333 C 46.544 105.333,47.303 104.204,48.141 102.823 C 48.979 101.442,49.908 99.942,50.204 99.489 C 50.501 99.037,50.660 98.667,50.559 98.667 C 50.457 98.667,49.567 99.979,48.580 101.583 M326.823 102.750 C 327.297 103.529,328.308 105.251,329.071 106.576 C 329.834 107.902,330.514 108.931,330.582 108.863 C 330.733 108.711,326.377 101.333,326.135 101.333 C 326.040 101.333,326.350 101.971,326.823 102.750 M92.019 105.361 C 92.030 106.171,92.167 107.433,92.325 108.167 C 92.531 109.124,92.559 108.748,92.427 106.833 C 92.225 103.899,91.989 103.048,92.019 105.361 M282.762 106.833 C 282.765 107.750,282.829 108.085,282.906 107.579 C 282.982 107.072,282.980 106.322,282.901 105.912 C 282.822 105.502,282.760 105.917,282.762 106.833 M45.190 107.217 C 44.714 108.070,44.377 108.821,44.441 108.886 C 44.506 108.950,44.968 108.253,45.467 107.335 C 45.966 106.417,46.303 105.667,46.216 105.667 C 46.129 105.667,45.667 106.364,45.190 107.217 M282.411 109.667 C 282.411 110.308,282.479 110.571,282.563 110.250 C 282.647 109.929,282.647 109.404,282.563 109.083 C 282.479 108.763,282.411 109.025,282.411 109.667 M331.533 111.002 C 332.032 111.919,332.494 112.617,332.559 112.552 C 332.703 112.409,331.007 109.333,330.784 109.333 C 330.697 109.333,331.034 110.084,331.533 111.002 M281.718 113.385 C 281.500 114.328,281.383 115.160,281.457 115.235 C 281.531 115.309,281.775 114.603,282.000 113.667 C 282.225 112.730,282.342 111.898,282.261 111.817 C 282.180 111.736,281.936 112.441,281.718 113.385 M93.057 112.333 C 93.074 113.199,93.598 114.622,93.610 113.833 C 93.615 113.467,93.491 112.867,93.333 112.500 C 93.158 112.092,93.051 112.027,93.057 112.333 M93.719 115.167 C 93.718 115.350,93.920 116.025,94.167 116.667 C 94.414 117.308,94.621 117.608,94.626 117.333 C 94.632 117.058,94.431 116.383,94.179 115.833 C 93.927 115.283,93.720 114.983,93.719 115.167 M280.704 117.370 C 280.498 117.959,280.389 118.500,280.460 118.571 C 280.531 118.642,280.758 118.219,280.963 117.630 C 281.168 117.041,281.278 116.500,281.207 116.429 C 281.135 116.358,280.909 116.781,280.704 117.370 M94.690 118.167 C 94.690 118.350,94.905 118.875,95.167 119.333 C 95.429 119.792,95.643 120.017,95.643 119.833 C 95.643 119.650,95.429 119.125,95.167 118.667 C 94.905 118.208,94.690 117.983,94.690 118.167 M38.721 119.848 C 38.162 121.073,38.269 121.335,38.873 120.221 C 39.155 119.700,39.323 119.212,39.247 119.136 C 39.171 119.060,38.934 119.380,38.721 119.848 M279.721 120.181 C 279.162 121.407,279.269 121.668,279.873 120.554 C 280.155 120.033,280.323 119.545,280.247 119.469 C 280.171 119.393,279.934 119.713,279.721 120.181 M95.673 120.418 C 95.670 120.556,96.114 121.381,96.660 122.251 C 97.207 123.121,97.657 123.720,97.660 123.582 C 97.664 123.444,97.220 122.619,96.673 121.749 C 96.126 120.879,95.676 120.280,95.673 120.418 M37.721 122.181 C 37.162 123.407,37.269 123.668,37.873 122.554 C 38.155 122.033,38.323 121.545,38.247 121.469 C 38.171 121.393,37.934 121.713,37.721 122.181 M336.690 121.500 C 336.690 121.683,336.905 122.208,337.167 122.667 C 337.429 123.125,337.643 123.350,337.643 123.167 C 337.643 122.983,337.429 122.458,337.167 122.000 C 336.905 121.542,336.690 121.317,336.690 121.500 M278.662 122.341 C 278.350 122.926,278.597 123.355,280.508 125.547 C 281.722 126.938,283.466 129.110,284.384 130.372 C 285.302 131.634,286.122 132.667,286.205 132.667 C 286.515 132.667,283.425 128.532,281.079 125.808 C 278.993 123.386,278.700 122.894,279.003 122.327 C 279.198 121.964,279.282 121.667,279.190 121.667 C 279.098 121.667,278.861 121.970,278.662 122.341 M36.721 124.514 C 36.162 125.740,36.269 126.002,36.873 124.887 C 37.155 124.367,37.323 123.879,37.247 123.802 C 37.171 123.726,36.934 124.047,36.721 124.514 M337.690 123.833 C 337.690 124.017,337.905 124.542,338.167 125.000 C 338.429 125.458,338.643 125.683,338.643 125.500 C 338.643 125.317,338.429 124.792,338.167 124.333 C 337.905 123.875,337.690 123.650,337.690 123.833 M35.721 126.848 C 35.162 128.073,35.269 128.335,35.873 127.221 C 36.155 126.700,36.323 126.212,36.247 126.136 C 36.171 126.060,35.934 126.380,35.721 126.848 M338.690 126.167 C 338.690 126.350,338.905 126.875,339.167 127.333 C 339.429 127.792,339.643 128.017,339.643 127.833 C 339.643 127.650,339.429 127.125,339.167 126.667 C 338.905 126.208,338.690 125.983,338.690 126.167 M34.721 129.514 C 34.162 130.740,34.269 131.002,34.873 129.887 C 35.155 129.367,35.323 128.879,35.247 128.802 C 35.171 128.726,34.934 129.047,34.721 129.514 M339.690 128.833 C 339.690 129.017,339.905 129.542,340.167 130.000 C 340.429 130.458,340.643 130.683,340.643 130.500 C 340.643 130.317,340.429 129.792,340.167 129.333 C 339.905 128.875,339.690 128.650,339.690 128.833 M33.721 132.181 C 33.162 133.407,33.269 133.668,33.873 132.554 C 34.155 132.033,34.323 131.545,34.247 131.469 C 34.171 131.393,33.934 131.713,33.721 132.181 M340.690 131.500 C 340.690 131.683,340.905 132.208,341.167 132.667 C 341.429 133.125,341.643 133.350,341.643 133.167 C 341.643 132.983,341.429 132.458,341.167 132.000 C 340.905 131.542,340.690 131.317,340.690 131.500 M286.624 133.500 C 286.804 133.867,287.195 134.467,287.494 134.833 L 288.037 135.500 287.709 134.833 C 287.529 134.467,287.138 133.867,286.839 133.500 L 286.297 132.833 286.624 133.500 M32.704 135.037 C 32.498 135.626,32.389 136.166,32.460 136.238 C 32.531 136.309,32.758 135.885,32.963 135.296 C 33.168 134.707,33.278 134.167,33.207 134.096 C 33.135 134.024,32.909 134.448,32.704 135.037 M341.858 134.667 C 341.980 135.125,342.220 135.725,342.390 136.000 C 342.604 136.347,342.631 136.246,342.476 135.667 C 342.353 135.208,342.114 134.608,341.944 134.333 C 341.729 133.986,341.703 134.088,341.858 134.667 M87.137 136.750 C 85.591 139.340,85.594 139.333,85.782 139.333 C 85.867 139.333,86.351 138.621,86.857 137.750 C 87.363 136.879,87.994 135.829,88.260 135.417 C 88.526 135.004,88.662 134.667,88.562 134.667 C 88.463 134.667,87.822 135.604,87.137 136.750 M288.500 136.667 C 288.784 137.217,289.092 137.667,289.184 137.667 C 289.275 137.667,289.118 137.217,288.833 136.667 C 288.549 136.117,288.241 135.667,288.150 135.667 C 288.058 135.667,288.216 136.117,288.500 136.667 M31.704 138.037 C 31.498 138.626,31.389 139.166,31.460 139.238 C 31.531 139.309,31.758 138.885,31.963 138.296 C 32.168 137.707,32.278 137.167,32.207 137.096 C 32.135 137.024,31.909 137.448,31.704 138.037 M342.858 137.667 C 342.980 138.125,343.220 138.725,343.390 139.000 C 343.604 139.347,343.631 139.246,343.476 138.667 C 343.353 138.208,343.114 137.608,342.944 137.333 C 342.729 136.986,342.703 137.088,342.858 137.667 M30.733 141.233 C 30.240 142.841,30.479 143.079,31.000 141.500 C 31.220 140.834,31.335 140.224,31.256 140.145 C 31.177 140.065,30.941 140.555,30.733 141.233 M84.333 141.667 C 83.959 142.400,83.728 143.000,83.820 143.000 C 83.911 143.000,84.293 142.400,84.667 141.667 C 85.041 140.933,85.272 140.333,85.180 140.333 C 85.089 140.333,84.707 140.933,84.333 141.667 M343.719 140.500 C 343.718 140.683,343.920 141.358,344.167 142.000 C 344.414 142.642,344.621 142.942,344.626 142.667 C 344.632 142.392,344.431 141.717,344.179 141.167 C 343.927 140.617,343.720 140.317,343.719 140.500 M29.524 145.524 C 29.401 146.012,29.365 146.476,29.444 146.555 C 29.522 146.633,29.687 146.298,29.810 145.810 C 29.932 145.321,29.968 144.857,29.890 144.778 C 29.811 144.700,29.646 145.035,29.524 145.524 M345.047 145.000 C 345.047 145.275,345.176 145.800,345.333 146.167 C 345.514 146.587,345.620 146.648,345.620 146.333 C 345.620 146.058,345.491 145.533,345.333 145.167 C 345.153 144.746,345.047 144.685,345.047 145.000 M82.054 146.514 C 81.496 147.740,81.602 148.002,82.206 146.887 C 82.488 146.367,82.656 145.879,82.580 145.802 C 82.504 145.726,82.267 146.047,82.054 146.514 M293.357 146.833 C 293.357 147.017,293.571 147.542,293.833 148.000 C 294.095 148.458,294.310 148.683,294.310 148.500 C 294.310 148.317,294.095 147.792,293.833 147.333 C 293.571 146.875,293.357 146.650,293.357 146.833 M28.857 148.190 C 28.735 148.679,28.699 149.143,28.777 149.222 C 28.856 149.300,29.020 148.965,29.143 148.476 C 29.265 147.988,29.301 147.524,29.223 147.445 C 29.144 147.367,28.980 147.702,28.857 148.190 M345.714 147.667 C 345.714 147.942,345.842 148.467,346.000 148.833 C 346.181 149.254,346.286 149.315,346.286 149.000 C 346.286 148.725,346.158 148.200,346.000 147.833 C 345.819 147.413,345.714 147.352,345.714 147.667 M294.524 150.000 C 294.647 150.458,294.886 151.058,295.056 151.333 C 295.271 151.681,295.297 151.579,295.142 151.000 C 295.020 150.542,294.780 149.942,294.610 149.667 C 294.396 149.319,294.369 149.421,294.524 150.000 M80.263 151.175 C 80.160 151.537,79.974 152.133,79.850 152.500 C 79.726 152.867,79.868 152.745,80.167 152.230 C 80.465 151.715,80.651 151.119,80.580 150.905 C 80.508 150.692,80.366 150.813,80.263 151.175 M27.667 153.333 C 27.442 154.270,27.324 155.102,27.406 155.183 C 27.487 155.264,27.731 154.559,27.949 153.615 C 28.166 152.672,28.284 151.840,28.210 151.765 C 28.136 151.691,27.891 152.397,27.667 153.333 M346.708 151.833 C 346.692 152.017,346.888 152.917,347.143 153.833 C 347.398 154.750,347.609 155.200,347.611 154.833 C 347.616 154.124,346.756 151.269,346.708 151.833 M295.384 152.667 C 295.384 152.942,295.586 153.692,295.833 154.333 C 296.080 154.975,296.283 155.275,296.283 155.000 C 296.283 154.725,296.080 153.975,295.833 153.333 C 295.586 152.692,295.384 152.392,295.384 152.667 M79.030 155.030 C 78.805 155.783,78.682 156.460,78.757 156.535 C 78.832 156.610,79.078 156.055,79.303 155.303 C 79.528 154.551,79.652 153.874,79.577 153.799 C 79.502 153.724,79.256 154.278,79.030 155.030 M296.542 157.000 C 296.658 157.642,296.884 158.467,297.045 158.833 C 297.245 159.291,297.270 159.134,297.125 158.333 C 297.009 157.692,296.782 156.867,296.622 156.500 C 296.422 156.042,296.396 156.199,296.542 157.000 M26.852 157.519 C 26.726 158.187,26.690 158.801,26.772 158.883 C 26.853 158.964,27.023 158.484,27.148 157.815 C 27.274 157.146,27.310 156.532,27.228 156.450 C 27.147 156.369,26.977 156.850,26.852 157.519 M347.733 156.833 C 347.733 157.200,347.853 157.875,348.000 158.333 C 348.211 158.993,348.267 159.028,348.267 158.500 C 348.267 158.133,348.147 157.458,348.000 157.000 C 347.789 156.340,347.733 156.305,347.733 156.833 M78.190 158.190 C 78.068 158.679,78.032 159.143,78.110 159.222 C 78.189 159.300,78.354 158.965,78.476 158.476 C 78.599 157.988,78.635 157.524,78.556 157.445 C 78.478 157.367,78.313 157.702,78.190 158.190 M297.382 160.833 C 297.371 161.200,297.566 162.400,297.814 163.500 C 298.062 164.600,298.274 165.200,298.285 164.833 C 298.295 164.467,298.101 163.267,297.853 162.167 C 297.605 161.067,297.393 160.467,297.382 160.833 M77.022 163.689 C 76.801 164.812,76.685 165.796,76.765 165.876 C 76.844 165.955,77.090 165.101,77.311 163.978 C 77.532 162.854,77.648 161.870,77.569 161.791 C 77.489 161.711,77.243 162.565,77.022 163.689 M25.667 164.667 C 25.436 166.147,25.316 167.427,25.400 167.511 C 25.483 167.595,25.738 166.449,25.965 164.965 C 26.192 163.481,26.312 162.201,26.232 162.121 C 26.151 162.040,25.897 163.186,25.667 164.667 M348.727 162.500 C 348.716 162.867,348.907 164.217,349.150 165.500 C 349.393 166.783,349.602 167.458,349.614 167.000 C 349.626 166.542,349.435 165.192,349.191 164.000 C 348.946 162.808,348.737 162.133,348.727 162.500 M298.564 169.167 C 298.665 170.633,298.804 171.896,298.874 171.972 C 299.099 172.220,298.958 169.541,298.666 168.000 C 298.451 166.872,298.426 167.162,298.564 169.167 M76.160 169.782 C 76.032 170.974,75.994 172.149,76.075 172.391 C 76.156 172.634,76.325 171.724,76.451 170.368 C 76.577 169.012,76.615 167.838,76.536 167.758 C 76.457 167.679,76.288 168.590,76.160 169.782 M24.827 172.115 C 24.699 173.489,24.660 174.813,24.741 175.057 C 24.823 175.301,24.995 174.243,25.123 172.706 C 25.251 171.169,25.290 169.846,25.209 169.764 C 25.128 169.683,24.956 170.741,24.827 172.115 M349.903 172.333 C 350.003 173.892,350.141 175.229,350.209 175.306 C 350.435 175.558,350.289 172.526,350.002 171.000 C 349.797 169.910,349.770 170.275,349.903 172.333 M299.114 174.833 C 299.115 176.300,299.174 176.859,299.244 176.075 C 299.315 175.291,299.314 174.091,299.242 173.408 C 299.171 172.725,299.113 173.367,299.114 174.833 M75.779 175.333 C 75.779 176.708,75.838 177.271,75.909 176.583 C 75.981 175.896,75.981 174.771,75.909 174.083 C 75.838 173.396,75.779 173.958,75.779 175.333 M24.443 177.833 C 24.444 179.117,24.504 179.601,24.577 178.909 C 24.649 178.218,24.648 177.168,24.574 176.576 C 24.500 175.984,24.441 176.550,24.443 177.833 M350.443 177.833 C 350.444 179.117,350.504 179.601,350.577 178.909 C 350.649 178.218,350.648 177.168,350.574 176.576 C 350.500 175.984,350.441 176.550,350.443 177.833 M299.109 184.833 C 299.111 186.117,299.171 186.601,299.243 185.909 C 299.315 185.218,299.314 184.168,299.241 183.576 C 299.167 182.984,299.108 183.550,299.109 184.833 M75.696 184.861 C 75.712 185.946,75.847 187.583,75.995 188.500 C 76.177 189.624,76.207 189.027,76.088 186.667 C 75.894 182.842,75.649 181.715,75.696 184.861 M298.533 189.533 C 298.408 190.753,298.374 191.819,298.457 191.902 C 298.540 191.985,298.714 191.059,298.844 189.844 C 298.974 188.630,299.009 187.564,298.921 187.476 C 298.833 187.388,298.658 188.314,298.533 189.533 M76.411 191.333 C 76.411 191.975,76.479 192.237,76.563 191.917 C 76.647 191.596,76.647 191.071,76.563 190.750 C 76.479 190.429,76.411 190.692,76.411 191.333 M297.711 195.378 C 297.481 196.492,297.356 197.467,297.432 197.543 C 297.509 197.620,297.765 196.776,298.000 195.667 C 298.235 194.558,298.361 193.583,298.279 193.501 C 298.197 193.419,297.941 194.263,297.711 195.378 M76.733 194.167 C 76.733 194.533,76.853 195.208,77.000 195.667 C 77.211 196.327,77.267 196.361,77.267 195.833 C 77.267 195.467,77.147 194.792,77.000 194.333 C 76.789 193.673,76.733 193.639,76.733 194.167 M350.443 196.500 C 350.444 197.783,350.504 198.267,350.577 197.576 C 350.649 196.884,350.648 195.834,350.574 195.243 C 350.500 194.651,350.441 195.217,350.443 196.500 M24.443 196.833 C 24.444 198.117,24.504 198.601,24.577 197.909 C 24.649 197.218,24.648 196.168,24.574 195.576 C 24.500 194.984,24.441 195.550,24.443 196.833 M77.714 199.000 C 77.714 199.275,77.842 199.800,78.000 200.167 C 78.181 200.587,78.286 200.648,78.286 200.333 C 78.286 200.058,78.158 199.533,78.000 199.167 C 77.819 198.746,77.714 198.685,77.714 199.000 M296.697 200.030 C 296.472 200.783,296.348 201.460,296.423 201.535 C 296.498 201.610,296.744 201.055,296.970 200.303 C 297.195 199.551,297.318 198.874,297.243 198.799 C 297.168 198.724,296.922 199.278,296.697 200.030 M350.100 200.667 C 350.100 201.675,350.162 202.088,350.239 201.583 C 350.315 201.079,350.315 200.254,350.239 199.750 C 350.162 199.246,350.100 199.658,350.100 200.667 M24.762 200.833 C 24.765 201.750,24.829 202.085,24.906 201.579 C 24.982 201.072,24.980 200.322,24.901 199.912 C 24.822 199.502,24.760 199.917,24.762 200.833 M78.707 202.667 C 78.701 202.942,78.903 203.617,79.155 204.167 C 79.744 205.454,79.753 204.855,79.167 203.333 C 78.920 202.692,78.713 202.392,78.707 202.667 M25.084 203.833 C 25.088 204.567,25.156 204.827,25.236 204.413 C 25.315 203.998,25.312 203.398,25.229 203.079 C 25.146 202.761,25.080 203.100,25.084 203.833 M349.751 203.833 C 349.754 204.567,349.823 204.827,349.902 204.413 C 349.982 203.998,349.979 203.398,349.896 203.079 C 349.812 202.761,349.747 203.100,349.751 203.833 M294.721 206.514 C 294.162 207.740,294.269 208.002,294.873 206.887 C 295.155 206.367,295.323 205.879,295.247 205.802 C 295.171 205.726,294.934 206.047,294.721 206.514 M25.411 207.667 C 25.411 208.308,25.479 208.571,25.563 208.250 C 25.647 207.929,25.647 207.404,25.563 207.083 C 25.479 206.762,25.411 207.025,25.411 207.667 M349.411 207.667 C 349.411 208.308,349.479 208.571,349.563 208.250 C 349.647 207.929,349.647 207.404,349.563 207.083 C 349.479 206.762,349.411 207.025,349.411 207.667 M80.690 208.500 C 80.690 208.683,80.905 209.208,81.167 209.667 C 81.429 210.125,81.643 210.350,81.643 210.167 C 81.643 209.983,81.429 209.458,81.167 209.000 C 80.905 208.542,80.690 208.317,80.690 208.500 M293.721 209.181 C 293.162 210.407,293.269 210.668,293.873 209.554 C 294.155 209.033,294.323 208.545,294.247 208.469 C 294.171 208.393,293.934 208.713,293.721 209.181 M81.690 210.833 C 81.690 211.017,81.905 211.542,82.167 212.000 C 82.429 212.458,82.643 212.683,82.643 212.500 C 82.643 212.317,82.429 211.792,82.167 211.333 C 81.905 210.875,81.690 210.650,81.690 210.833 M26.399 214.333 C 26.397 215.268,27.240 218.782,27.279 218.000 C 27.293 217.725,27.101 216.600,26.853 215.500 C 26.605 214.400,26.401 213.875,26.399 214.333 M348.076 215.683 C 347.860 216.844,347.741 217.853,347.813 217.924 C 348.005 218.116,348.737 214.379,348.593 213.945 C 348.524 213.740,348.292 214.522,348.076 215.683 M84.533 216.668 C 85.032 217.586,85.494 218.284,85.559 218.219 C 85.703 218.075,84.007 215.000,83.784 215.000 C 83.697 215.000,84.034 215.751,84.533 216.668 M289.076 218.445 C 288.715 219.057,288.158 219.995,287.837 220.529 L 287.254 221.500 287.944 220.667 C 288.732 219.714,290.120 217.333,289.888 217.333 C 289.802 217.333,289.437 217.834,289.076 218.445 M86.366 219.814 C 86.752 220.468,87.202 221.086,87.367 221.188 C 87.533 221.290,87.352 220.839,86.967 220.186 C 86.582 219.532,86.131 218.914,85.966 218.812 C 85.801 218.710,85.981 219.161,86.366 219.814 M286.333 222.667 C 285.942 223.217,285.696 223.667,285.788 223.667 C 285.880 223.667,286.275 223.217,286.667 222.667 C 287.058 222.117,287.304 221.667,287.212 221.667 C 287.120 221.667,286.725 222.117,286.333 222.667 M89.196 223.833 C 92.884 229.141,100.603 236.697,105.667 239.953 L 106.833 240.703 105.868 239.935 C 97.018 232.887,95.917 231.810,89.218 223.655 L 88.270 222.500 89.196 223.833 M28.537 225.000 C 28.650 225.642,28.878 226.392,29.043 226.667 C 29.398 227.259,29.057 225.531,28.615 224.500 C 28.423 224.050,28.397 224.213,28.537 225.000 M346.190 224.857 C 346.068 225.346,346.032 225.810,346.110 225.888 C 346.189 225.967,346.354 225.631,346.476 225.143 C 346.599 224.654,346.635 224.190,346.556 224.112 C 346.478 224.033,346.313 224.369,346.190 224.857 M29.384 228.333 C 29.384 228.608,29.586 229.358,29.833 230.000 C 30.080 230.642,30.283 230.942,30.283 230.667 C 30.283 230.392,30.080 229.642,29.833 229.000 C 29.586 228.358,29.384 228.058,29.384 228.333 M345.030 229.364 C 344.805 230.116,344.682 230.793,344.757 230.868 C 344.832 230.943,345.078 230.389,345.303 229.636 C 345.528 228.884,345.652 228.207,345.577 228.132 C 345.502 228.057,345.256 228.611,345.030 229.364 M278.667 231.833 C 277.301 233.208,276.258 234.333,276.350 234.333 C 276.442 234.333,277.634 233.208,279.000 231.833 C 280.366 230.458,281.408 229.333,281.317 229.333 C 281.225 229.333,280.032 230.458,278.667 231.833 M32.358 238.333 C 32.357 238.814,33.297 240.722,33.322 240.288 C 33.328 240.172,33.114 239.572,32.846 238.955 C 32.579 238.338,32.359 238.058,32.358 238.333 M342.263 238.509 C 342.160 238.871,341.974 239.467,341.850 239.833 C 341.726 240.200,341.868 240.079,342.167 239.563 C 342.465 239.048,342.651 238.452,342.580 238.239 C 342.508 238.025,342.366 238.147,342.263 238.509 M107.745 241.409 C 108.735 242.250,110.667 243.456,110.667 243.233 C 110.667 243.157,109.804 242.541,108.750 241.864 C 107.696 241.187,107.244 240.982,107.745 241.409 M341.037 242.037 C 340.832 242.626,340.722 243.166,340.793 243.238 C 340.865 243.309,341.091 242.885,341.296 242.296 C 341.502 241.707,341.611 241.167,341.540 241.096 C 341.469 241.024,341.242 241.448,341.037 242.037 M34.358 244.000 C 34.357 244.480,35.297 246.389,35.322 245.955 C 35.328 245.838,35.114 245.238,34.846 244.622 C 34.579 244.005,34.359 243.725,34.358 244.000 M116.333 246.498 C 116.333 246.722,119.707 248.404,119.857 248.254 C 119.925 248.186,119.161 247.727,118.157 247.235 C 117.154 246.743,116.333 246.411,116.333 246.498 M123.000 249.833 C 123.458 250.095,123.983 250.310,124.167 250.310 C 124.350 250.310,124.125 250.095,123.667 249.833 C 123.208 249.571,122.683 249.357,122.500 249.357 C 122.317 249.357,122.542 249.571,123.000 249.833 M74.088 251.239 C 74.595 251.316,75.345 251.314,75.755 251.235 C 76.165 251.156,75.750 251.093,74.833 251.095 C 73.917 251.098,73.581 251.163,74.088 251.239 M128.000 251.833 C 128.458 252.095,128.983 252.310,129.167 252.310 C 129.350 252.310,129.125 252.095,128.667 251.833 C 128.208 251.571,127.683 251.357,127.500 251.357 C 127.317 251.357,127.542 251.571,128.000 251.833 M246.333 251.833 C 245.875 252.095,245.650 252.310,245.833 252.310 C 246.017 252.310,246.542 252.095,247.000 251.833 C 247.458 251.571,247.683 251.357,247.500 251.357 C 247.317 251.357,246.792 251.571,246.333 251.833 M69.287 252.353 L 68.500 253.040 69.500 252.454 C 70.816 251.683,70.836 251.667,70.426 251.667 C 70.232 251.667,69.720 251.976,69.287 252.353 M243.667 252.833 C 243.208 253.095,242.983 253.310,243.167 253.310 C 243.350 253.310,243.875 253.095,244.333 252.833 C 244.792 252.571,245.017 252.357,244.833 252.357 C 244.650 252.357,244.125 252.571,243.667 252.833 M83.667 253.167 C 84.125 253.429,84.650 253.643,84.833 253.643 C 85.017 253.643,84.792 253.429,84.333 253.167 C 83.875 252.905,83.350 252.690,83.167 252.690 C 82.983 252.690,83.208 252.905,83.667 253.167 M86.167 254.219 C 86.717 254.508,87.892 255.184,88.779 255.720 C 89.665 256.257,90.296 256.543,90.181 256.356 C 89.930 255.950,85.899 253.661,85.468 253.680 C 85.302 253.687,85.617 253.930,86.167 254.219 M139.833 255.667 C 140.200 255.824,140.725 255.953,141.000 255.953 C 141.315 255.953,141.254 255.847,140.833 255.667 C 140.467 255.509,139.942 255.380,139.667 255.380 C 139.352 255.380,139.413 255.486,139.833 255.667 M234.167 255.667 C 233.746 255.847,233.685 255.953,234.000 255.953 C 234.275 255.953,234.800 255.824,235.167 255.667 C 235.587 255.486,235.648 255.380,235.333 255.380 C 235.058 255.380,234.533 255.509,234.167 255.667 M143.833 256.667 C 144.200 256.824,144.725 256.953,145.000 256.953 C 145.315 256.953,145.254 256.847,144.833 256.667 C 144.467 256.509,143.942 256.380,143.667 256.380 C 143.352 256.380,143.413 256.486,143.833 256.667 M230.167 256.667 C 229.746 256.847,229.685 256.953,230.000 256.953 C 230.275 256.953,230.800 256.824,231.167 256.667 C 231.587 256.486,231.648 256.380,231.333 256.380 C 231.058 256.380,230.533 256.509,230.167 256.667 M91.000 257.052 C 91.275 257.321,92.625 258.485,94.000 259.638 L 96.500 261.734 94.500 259.835 C 93.400 258.790,92.050 257.627,91.500 257.249 C 90.950 256.872,90.725 256.783,91.000 257.052 M148.833 257.843 C 149.567 258.084,150.467 258.280,150.833 258.278 C 151.200 258.276,150.750 258.065,149.833 257.810 C 147.748 257.230,147.043 257.253,148.833 257.843 M225.000 257.833 C 224.175 258.072,223.800 258.271,224.167 258.275 C 224.533 258.279,225.433 258.084,226.167 257.843 C 227.893 257.274,226.957 257.266,225.000 257.833 M40.357 257.833 C 40.357 258.017,40.571 258.542,40.833 259.000 C 41.095 259.458,41.310 259.683,41.310 259.500 C 41.310 259.317,41.095 258.792,40.833 258.333 C 40.571 257.875,40.357 257.650,40.357 257.833 M222.386 263.500 C 222.385 263.683,222.586 264.358,222.833 265.000 C 223.080 265.642,223.287 265.942,223.293 265.667 C 223.299 265.392,223.097 264.717,222.845 264.167 C 222.594 263.617,222.387 263.317,222.386 263.500 M43.338 263.708 C 43.331 264.004,45.027 267.000,45.202 267.000 C 45.282 267.000,45.050 266.438,44.686 265.750 C 43.899 264.259,43.345 263.421,43.338 263.708 M330.533 265.332 C 330.034 266.249,329.697 267.000,329.784 267.000 C 330.007 267.000,331.703 263.925,331.559 263.781 C 331.494 263.716,331.032 264.414,330.533 265.332 M151.833 266.333 C 151.707 266.910,151.673 267.450,151.758 267.535 C 151.843 267.620,152.008 267.211,152.125 266.625 C 152.403 265.236,152.134 264.966,151.833 266.333 M83.333 269.333 C 83.725 269.883,84.120 270.333,84.212 270.333 C 84.304 270.333,84.058 269.883,83.667 269.333 C 83.275 268.783,82.880 268.333,82.788 268.333 C 82.696 268.333,82.942 268.783,83.333 269.333 M223.751 270.167 C 223.754 270.900,223.823 271.161,223.902 270.746 C 223.982 270.331,223.979 269.731,223.896 269.413 C 223.812 269.094,223.747 269.433,223.751 270.167 M151.091 272.000 C 151.091 272.825,151.156 273.162,151.235 272.750 C 151.315 272.337,151.315 271.662,151.235 271.250 C 151.156 270.837,151.091 271.175,151.091 272.000 M85.580 272.818 C 86.073 273.634,86.530 274.248,86.595 274.182 C 86.736 274.042,85.064 271.333,84.837 271.333 C 84.753 271.333,85.086 272.001,85.580 272.818 M224.116 274.333 C 224.116 275.892,224.174 276.529,224.244 275.750 C 224.314 274.971,224.314 273.696,224.244 272.917 C 224.174 272.137,224.116 272.775,224.116 274.333 M104.333 272.771 C 104.333 272.828,104.821 273.316,105.417 273.854 L 106.500 274.833 105.521 273.750 C 104.608 272.740,104.333 272.513,104.333 272.771 M150.779 276.000 C 150.779 277.375,150.838 277.938,150.909 277.250 C 150.981 276.563,150.981 275.438,150.909 274.750 C 150.838 274.063,150.779 274.625,150.779 276.000 M49.898 275.026 C 50.229 275.590,50.713 276.227,50.973 276.442 C 51.234 276.657,51.026 276.196,50.512 275.417 C 49.433 273.781,49.008 273.510,49.898 275.026 M324.488 275.417 C 323.974 276.196,323.766 276.657,324.027 276.442 C 324.527 276.029,325.804 274.000,325.563 274.000 C 325.485 274.000,325.001 274.637,324.488 275.417 M107.167 275.307 C 107.533 275.731,108.508 276.521,109.333 277.064 C 110.813 278.037,110.444 277.675,107.833 275.597 C 106.941 274.887,106.721 274.791,107.167 275.307 M51.898 278.026 C 52.229 278.590,52.713 279.227,52.973 279.442 C 53.234 279.657,53.026 279.196,52.512 278.417 C 51.433 276.781,51.008 276.510,51.898 278.026 M322.488 278.417 C 321.974 279.196,321.766 279.657,322.027 279.442 C 322.527 279.029,323.804 277.000,323.563 277.000 C 323.485 277.000,323.001 277.637,322.488 278.417 M111.500 278.512 C 112.253 279.123,115.682 280.911,115.167 280.423 C 114.983 280.250,113.933 279.627,112.833 279.040 C 111.733 278.452,111.133 278.215,111.500 278.512 M88.690 278.500 C 88.690 278.683,88.905 279.208,89.167 279.667 C 89.429 280.125,89.643 280.350,89.643 280.167 C 89.643 279.983,89.429 279.458,89.167 279.000 C 88.905 278.542,88.690 278.317,88.690 278.500 M53.638 280.583 C 53.819 280.904,54.361 281.617,54.843 282.167 C 55.507 282.924,55.457 282.782,54.637 281.583 C 53.566 280.018,53.002 279.453,53.638 280.583 M320.000 282.000 C 319.608 282.550,319.363 283.000,319.455 283.000 C 319.546 283.000,319.942 282.550,320.333 282.000 C 320.725 281.450,320.970 281.000,320.879 281.000 C 320.787 281.000,320.392 281.450,320.000 282.000 M119.000 282.167 C 119.458 282.429,120.058 282.642,120.333 282.642 C 120.608 282.641,120.329 282.421,119.712 282.154 C 118.292 281.537,117.911 281.544,119.000 282.167 M121.667 282.957 C 121.942 283.122,122.692 283.350,123.333 283.463 C 124.120 283.603,124.283 283.577,123.833 283.385 C 122.803 282.943,121.075 282.602,121.667 282.957 M146.000 283.167 C 145.358 283.414,145.058 283.621,145.333 283.626 C 145.608 283.632,146.283 283.431,146.833 283.179 C 148.121 282.589,147.522 282.581,146.000 283.167 M90.673 283.122 C 90.665 283.511,92.411 286.700,92.555 286.556 C 92.617 286.494,92.221 285.631,91.674 284.638 C 91.126 283.645,90.676 282.963,90.673 283.122 M56.326 284.323 C 56.714 284.868,57.201 285.418,57.409 285.547 C 57.617 285.676,57.368 285.230,56.854 284.557 C 55.740 283.096,55.320 282.910,56.326 284.323 M318.146 284.557 C 317.632 285.230,317.383 285.676,317.591 285.547 C 318.017 285.283,319.460 283.333,319.229 283.333 C 319.147 283.333,318.659 283.884,318.146 284.557 M141.667 284.000 C 140.536 284.238,140.531 284.246,141.500 284.256 C 142.050 284.262,142.875 284.147,143.333 284.000 C 144.426 283.650,143.330 283.650,141.667 284.000 M129.755 284.573 C 130.261 284.649,131.011 284.647,131.421 284.568 C 131.831 284.489,131.417 284.426,130.500 284.429 C 129.583 284.431,129.248 284.496,129.755 284.573 M138.088 284.573 C 138.595 284.649,139.345 284.647,139.755 284.568 C 140.165 284.489,139.750 284.426,138.833 284.429 C 137.917 284.431,137.581 284.496,138.088 284.573 M58.667 287.333 C 59.247 288.067,59.798 288.667,59.889 288.667 C 59.981 288.667,59.581 288.067,59.000 287.333 C 58.419 286.600,57.869 286.000,57.777 286.000 C 57.686 286.000,58.086 286.600,58.667 287.333 M93.333 288.000 C 93.725 288.550,94.120 289.000,94.212 289.000 C 94.304 289.000,94.058 288.550,93.667 288.000 C 93.275 287.450,92.880 287.000,92.788 287.000 C 92.696 287.000,92.942 287.450,93.333 288.000 M311.946 292.259 C 311.518 292.768,310.505 293.969,309.696 294.927 C 308.888 295.886,308.158 296.602,308.074 296.519 C 307.926 296.371,312.309 291.333,312.586 291.333 C 312.663 291.333,312.375 291.750,311.946 292.259 M98.407 294.178 C 98.905 294.702,99.373 295.064,99.446 294.982 C 99.519 294.900,99.111 294.471,98.539 294.029 L 97.500 293.224 98.407 294.178 M113.333 303.833 C 113.792 304.095,114.317 304.310,114.500 304.310 C 114.683 304.310,114.458 304.095,114.000 303.833 C 113.542 303.571,113.017 303.357,112.833 303.357 C 112.650 303.357,112.875 303.571,113.333 303.833 M118.833 305.622 C 119.200 305.782,120.025 306.009,120.667 306.125 C 121.468 306.270,121.624 306.245,121.167 306.045 C 120.800 305.884,119.975 305.658,119.333 305.542 C 118.532 305.396,118.376 305.422,118.833 305.622 M147.000 306.000 C 146.340 306.211,146.305 306.267,146.833 306.267 C 147.200 306.267,147.875 306.147,148.333 306.000 C 148.993 305.789,149.028 305.733,148.500 305.733 C 148.133 305.733,147.458 305.853,147.000 306.000 M140.833 306.864 L 138.167 307.300 140.500 307.132 C 141.783 307.039,143.358 306.837,144.000 306.682 C 145.812 306.246,143.953 306.353,140.833 306.864 M125.500 307.001 C 126.848 307.298,129.228 307.439,128.972 307.208 C 128.896 307.139,127.783 306.998,126.500 306.895 C 124.707 306.751,124.475 306.776,125.500 307.001 M83.917 313.048 C 84.406 313.659,88.333 316.781,88.333 316.560 C 88.333 316.476,87.246 315.535,85.917 314.468 C 84.587 313.401,83.688 312.762,83.917 313.048 M290.843 312.984 C 290.736 313.158,288.627 314.830,286.157 316.698 C 283.687 318.567,281.667 320.168,281.667 320.255 C 281.667 320.343,281.854 320.272,282.083 320.096 C 282.313 319.921,284.319 318.403,286.543 316.722 C 290.273 313.903,291.701 312.667,291.227 312.667 C 291.124 312.667,290.951 312.809,290.843 312.984 M90.000 317.762 C 90.000 317.945,94.136 321.035,95.000 321.497 C 95.713 321.879,95.073 321.301,93.667 320.295 C 93.025 319.836,91.938 319.039,91.250 318.524 C 90.563 318.009,90.000 317.666,90.000 317.762 M95.891 322.027 C 96.305 322.527,98.333 323.804,98.333 323.563 C 98.333 323.485,97.696 323.001,96.917 322.488 C 96.138 321.974,95.676 321.766,95.891 322.027 M278.068 322.476 C 276.519 323.571,276.302 323.884,277.609 323.135 C 278.219 322.786,278.875 322.313,279.066 322.083 C 279.559 321.494,279.328 321.585,278.068 322.476 M98.891 324.027 C 99.305 324.527,101.333 325.804,101.333 325.563 C 101.333 325.485,100.696 325.001,99.917 324.488 C 99.138 323.974,98.676 323.766,98.891 324.027 M106.667 328.784 C 106.667 329.007,109.742 330.703,109.886 330.559 C 109.950 330.494,109.253 330.032,108.335 329.533 C 107.417 329.034,106.667 328.697,106.667 328.784 M266.917 329.356 C 266.229 329.719,265.667 330.090,265.667 330.181 C 265.667 330.272,266.267 330.041,267.000 329.667 C 267.733 329.293,268.333 328.914,268.333 328.827 C 268.333 328.609,268.331 328.609,266.917 329.356 M148.016 335.808 C 147.627 336.436,146.381 337.809,145.247 338.860 C 144.112 339.911,143.480 340.612,143.842 340.418 C 145.195 339.693,149.610 334.667,148.893 334.667 C 148.799 334.667,148.404 335.180,148.016 335.808 M121.000 336.167 C 121.458 336.429,121.983 336.643,122.167 336.643 C 122.350 336.643,122.125 336.429,121.667 336.167 C 121.208 335.905,120.683 335.690,120.500 335.690 C 120.317 335.690,120.542 335.905,121.000 336.167 M253.333 336.167 C 252.875 336.429,252.650 336.643,252.833 336.643 C 253.017 336.643,253.542 336.429,254.000 336.167 C 254.458 335.905,254.683 335.690,254.500 335.690 C 254.317 335.690,253.792 335.905,253.333 336.167 M123.333 337.167 C 123.792 337.429,124.317 337.643,124.500 337.643 C 124.683 337.643,124.458 337.429,124.000 337.167 C 123.542 336.905,123.017 336.690,122.833 336.690 C 122.650 336.690,122.875 336.905,123.333 337.167 M251.000 337.167 C 250.542 337.429,250.317 337.643,250.500 337.643 C 250.683 337.643,251.208 337.429,251.667 337.167 C 252.125 336.905,252.350 336.690,252.167 336.690 C 251.983 336.690,251.458 336.905,251.000 337.167 M125.667 338.167 C 126.125 338.429,126.650 338.643,126.833 338.643 C 127.017 338.643,126.792 338.429,126.333 338.167 C 125.875 337.905,125.350 337.690,125.167 337.690 C 124.983 337.690,125.208 337.905,125.667 338.167 M248.667 338.167 C 248.208 338.429,247.983 338.643,248.167 338.643 C 248.350 338.643,248.875 338.429,249.333 338.167 C 249.792 337.905,250.017 337.690,249.833 337.690 C 249.650 337.690,249.125 337.905,248.667 338.167 M230.025 338.893 L 230.833 339.785 229.750 339.036 C 228.657 338.281,228.438 338.000,228.942 338.000 C 229.093 338.000,229.581 338.402,230.025 338.893 M240.833 341.178 C 240.000 341.580,239.972 341.626,240.667 341.456 C 241.611 341.226,242.673 340.684,242.167 340.692 C 241.983 340.695,241.383 340.913,240.833 341.178 M136.264 342.060 C 136.988 342.348,138.920 342.336,139.998 342.036 C 140.487 341.900,139.770 341.810,138.262 341.819 C 136.850 341.827,135.950 341.935,136.264 342.060 M235.000 341.989 C 235.826 342.264,238.239 342.445,237.972 342.212 C 237.896 342.145,237.008 342.005,236.000 341.901 C 234.816 341.778,234.462 341.809,235.000 341.989 " stroke="none" fill="#040404" fill-rule="evenodd"></path><path id="path1" d="" stroke="none" fill="#080404" fill-rule="evenodd"></path><path id="path2" d="" stroke="none" fill="#080404" fill-rule="evenodd"></path></g></svg>